<svg width="168" height="170" viewBox="0 0 168 170" fill="none" xmlns="http://www.w3.org/2000/svg">
<path d="M162.152 133.496C154.247 144.352 141.684 145.382 134.015 145.622C131.397 152.91 126.511 164.541 113.7 168.705C111.048 169.563 108.272 170 105.45 170C96.1865 170 89.0652 165.468 83.7476 161.833C78.4436 165.456 71.3189 170 62.0505 170C59.2251 170 56.4473 169.565 53.7987 168.705C40.9756 164.538 36.0949 152.893 33.4836 145.622C25.8251 145.381 13.2536 144.355 5.3486 133.499C-3.08681 121.904 0.814695 108.698 2.9108 101.605L3.3069 100.257C3.9563 97.9998 6.3074 96.7044 8.56841 97.3521C10.8243 98.0032 12.1231 100.361 11.4737 102.614L11.0589 104.025C9.14641 110.495 6.2513 120.294 12.2217 128.498C18.2193 136.736 28.4754 136.998 35.2602 137.168L36.627 137.205C38.3865 137.251 39.9352 138.375 40.5217 140.036L40.9552 141.265C43.2196 147.706 46.6451 157.445 56.4218 160.621C58.2221 161.206 60.1125 161.5 62.0454 161.5C69.2245 161.5 74.8787 157.612 79.8699 154.183L81.3676 153.161C82.8075 152.191 84.7081 152.182 86.1463 153.17L87.6304 154.187C92.6148 157.612 98.2708 161.5 105.45 161.5C107.384 161.5 109.277 161.206 111.077 160.619C120.85 157.444 124.274 147.704 126.54 141.26L126.98 140.019C127.574 138.366 129.117 137.251 130.868 137.205L132.21 137.168C139.023 136.998 149.279 136.736 155.28 128.489C161.247 120.294 158.351 110.503 156.438 104.025L156.144 103.025C155.484 100.771 156.72 98.2157 158.969 97.5544C161.239 96.8829 163.525 97.9896 164.187 100.239L164.302 100.636L164.581 101.583C166.684 108.708 170.585 121.909 162.152 133.496ZM3.8288 76.5083C3.8288 70.3356 9.34701 66.1264 14.2124 62.4153C16.8967 60.3668 20.2355 57.8185 20.8084 56.0556C21.4391 54.1142 20.2593 50.1192 19.2172 46.5934C17.5172 40.8457 15.5945 34.3347 19.0948 29.522C22.6291 24.6685 29.458 24.4934 35.4812 24.3404C38.9441 24.2537 43.257 24.1432 44.8584 22.9753C46.4207 21.8397 47.8368 17.8124 48.9758 14.5772C50.9886 8.84994 53.2717 2.35763 59.0483 0.480823C64.6379 -1.33138 69.9334 2.31343 75.064 5.83923C78.1393 7.95233 81.626 10.3459 83.7527 10.3459C85.8794 10.3459 89.3644 7.95063 92.438 5.83923C97.5721 2.31513 102.888 -1.33138 108.454 0.480823C114.235 2.35593 116.517 8.84994 118.53 14.5789C119.667 17.8141 121.081 21.8414 122.647 22.977C124.248 24.1432 128.556 24.2537 132.017 24.3421C138.047 24.4934 144.878 24.6685 148.411 29.5237C151.913 34.3364 149.988 40.8508 148.287 46.5968C147.244 50.1226 146.063 54.1159 146.694 56.0573C147.267 57.8185 150.607 60.3668 153.293 62.4153C158.162 66.1298 163.677 70.3373 163.677 76.5083C163.677 82.6811 158.162 86.8903 153.293 90.6014C150.609 92.6516 147.267 95.1999 146.694 96.9594C146.063 98.9008 147.246 102.897 148.287 106.422C149.988 112.169 151.914 118.68 148.411 123.495C144.875 128.35 138.044 128.52 132.017 128.675C128.553 128.761 124.245 128.874 122.639 130.04C121.078 131.177 119.664 135.203 118.526 138.439C116.513 144.167 114.235 150.661 108.454 152.538C102.893 154.36 97.5721 150.707 92.438 147.179C89.3627 145.066 85.8794 142.672 83.7527 142.672C81.6243 142.672 78.1376 145.068 75.0623 147.179C70.8735 150.059 66.5657 153.019 62.0896 153.019C61.0849 153.019 60.0734 152.869 59.05 152.538C53.2717 150.662 50.9886 144.167 48.9758 138.436C47.8385 135.203 46.4241 131.177 44.8635 130.04C43.2587 128.874 38.9492 128.761 35.4863 128.675C29.4597 128.522 22.6308 128.352 19.0948 123.495C15.5928 118.68 17.5172 112.169 19.2172 106.422C20.261 102.897 21.4408 98.9025 20.8101 96.9594C20.2372 95.1948 16.8967 92.6482 14.2141 90.6014C9.34361 86.8869 3.8288 82.6794 3.8288 76.5083ZM12.3271 76.5083C12.3271 78.4735 16.3969 81.5778 19.3651 83.8438C23.3635 86.8937 27.4996 90.0506 28.8919 94.338C30.3369 98.7869 28.8256 103.895 27.3653 108.834C26.3963 112.113 24.9292 117.072 25.9645 118.492C27.0304 119.96 32.042 120.09 35.6988 120.181C40.8226 120.311 46.1181 120.447 49.8615 123.17C53.5641 125.863 55.3066 130.823 56.9913 135.621C58.2153 139.108 59.8915 143.879 61.6731 144.456C63.2915 144.995 67.4684 142.091 70.2479 140.177C74.5438 137.226 78.9859 134.176 83.7527 134.176C88.5161 134.176 92.9582 137.226 97.2524 140.177C100.029 142.083 104.212 144.966 105.831 144.456C107.607 143.879 109.283 139.106 110.507 135.624C112.197 130.827 113.94 125.863 117.637 123.17C121.384 120.448 126.679 120.311 131.802 120.181C135.458 120.09 140.472 119.962 141.538 118.492C142.571 117.072 141.106 112.113 140.135 108.834C138.675 103.895 137.163 98.7869 138.608 94.338C140.002 90.0506 144.137 86.8971 148.137 83.8473C151.103 81.5794 155.175 78.4769 155.175 76.51C155.175 74.5448 151.109 71.4406 148.137 69.1745C144.137 66.1247 140.002 62.9678 138.608 58.6838C137.169 54.2349 138.675 49.1281 140.135 44.1896C141.106 40.9069 142.571 35.9497 141.538 34.5268C140.472 33.0597 135.462 32.9339 131.802 32.8404C126.681 32.7112 121.386 32.5769 117.642 29.8518C113.945 27.159 112.197 22.1967 110.512 17.4009C109.288 13.9176 107.612 9.14404 105.831 8.56774C104.216 8.04073 100.029 10.9375 97.2524 12.8466C92.9565 15.7978 88.5161 18.8477 83.7527 18.8477C78.9859 18.8477 74.5455 15.7978 70.253 12.8466C67.4701 10.9358 63.2711 8.04753 61.6748 8.56774C59.8966 9.14404 58.2204 13.9142 56.9964 17.3993C55.31 22.1967 53.5641 27.1556 49.8649 29.8501C46.1215 32.5752 40.8243 32.7095 35.7005 32.8404C32.0437 32.9339 27.0372 33.0597 25.9713 34.5251C24.936 35.9463 26.4014 40.9052 27.3721 44.1845C28.8307 49.1247 30.342 54.2332 28.897 58.6821C27.5047 62.9695 23.3686 66.123 19.3719 69.1728C16.3969 71.4355 12.3271 74.5397 12.3271 76.5083ZM39.7652 76.5083C39.7652 52.2561 59.4971 32.5242 83.7493 32.5242C108.002 32.5242 127.732 52.2561 127.732 76.5083C127.732 100.761 108.003 120.489 83.7493 120.489C59.4954 120.489 39.7652 100.761 39.7652 76.5083ZM48.2652 76.5083C48.2652 96.072 64.1823 111.991 83.7493 111.991C103.313 111.991 119.232 96.072 119.232 76.5083C119.232 56.9413 103.313 41.0242 83.7493 41.0242C64.1823 41.0225 48.2652 56.9396 48.2652 76.5083ZM72.8659 95.885C73.6819 96.6398 74.7172 97.0138 75.7508 97.0138C76.8677 97.0138 77.9795 96.5786 78.8142 95.7099L104.875 68.6186C106.502 66.9271 106.448 64.236 104.76 62.6091C103.066 60.9839 100.377 61.0298 98.7502 62.7247L75.5791 86.8138L64.9626 76.9996C63.2405 75.4067 60.5528 75.5138 58.9582 77.2359C57.3653 78.958 57.4707 81.6475 59.1945 83.2403L72.8659 95.885Z" fill="#299AB3"/>
</svg>
